<?xml version="1.0" encoding="utf-8"?>
<!-- Generator: Adobe Illustrator 24.0.1, SVG Export Plug-In . SVG Version: 6.00 Build 0)  -->
<svg version="1.1" xmlns="http://www.w3.org/2000/svg" xmlns:xlink="http://www.w3.org/1999/xlink" x="0px" y="0px"
	 viewBox="0 0 1024 1024" style="enable-background:new 0 0 1024 1024;" xml:space="preserve">
<style type="text/css">
	.st0{fill:#EFE02B;}
	.st1{fill:#EEDF2D;}
	.st2{fill:#F2C029;}
	.st3{fill:#FFEC3E;}
</style>
<g id="Палитры">
</g>
<g id="Фон">
</g>
<g id="_x32__x28_ф_x29_">
	<g>
		<rect x="96" y="272.1" class="st0" width="13.5" height="13.6"/>
		<rect x="136.6" y="190.7" class="st0" width="13.5" height="13.6"/>
		<polygon class="st0" points="177.3,733.6 163.7,733.6 163.7,720 150.2,720 150.2,706.5 109.5,706.5 109.5,692.9 82.4,692.9 
			82.4,679.3 68.9,679.3 68.9,652.2 55.3,652.2 55.3,638.6 96,638.6 96,652.2 123.1,652.2 123.1,692.9 136.6,692.9 136.6,638.6 
			123.1,638.6 123.1,625 82.4,625 82.4,611.4 55.3,611.4 55.3,584.3 41.8,584.3 41.8,557.2 55.3,557.2 55.3,570.7 96,570.7 
			96,584.3 109.5,584.3 109.5,597.9 123.1,597.9 123.1,557.2 109.5,557.2 109.5,543.6 68.9,543.6 68.9,530 55.3,530 55.3,502.8 
			41.8,502.8 41.8,448.6 55.3,448.6 55.3,475.7 68.9,475.7 68.9,489.3 96,489.3 96,516.4 109.5,516.4 109.5,462.1 82.4,462.1 
			82.4,448.6 68.9,448.6 68.9,421.4 55.3,421.4 55.3,394.3 68.9,394.3 68.9,367.1 82.4,367.1 82.4,394.3 96,394.3 96,407.8 
			109.5,407.8 109.5,435 123.1,435 123.1,367.1 109.5,367.1 109.5,340 96,340 96,299.3 109.5,299.3 109.5,285.7 123.1,285.7 
			123.1,299.3 136.6,299.3 136.6,326.4 150.2,326.4 150.2,312.8 163.7,312.8 163.7,285.7 150.2,285.7 150.2,272.1 136.6,272.1 
			136.6,217.8 150.2,217.8 150.2,204.2 163.7,204.2 163.7,217.8 177.3,217.8 177.3,272.1 190.8,272.1 190.8,299.3 177.3,299.3 
			177.3,326.4 190.8,326.4 190.8,312.8 217.9,312.8 217.9,326.4 231.5,326.4 231.5,340 217.9,340 217.9,353.5 163.7,353.5 
			163.7,340 150.2,340 150.2,353.5 136.6,353.5 136.6,380.7 163.7,380.7 163.7,367.1 204.4,367.1 204.4,380.7 231.5,380.7 
			231.5,394.3 217.9,394.3 217.9,407.8 177.3,407.8 177.3,421.4 150.2,421.4 150.2,407.8 136.6,407.8 136.6,448.6 123.1,448.6 
			123.1,475.7 136.6,475.7 136.6,462.1 150.2,462.1 150.2,448.6 163.7,448.6 163.7,435 190.8,435 190.8,448.6 204.4,448.6 
			204.4,462.1 190.8,462.1 190.8,475.7 177.3,475.7 177.3,489.3 163.7,489.3 163.7,502.8 123.1,502.8 123.1,530 136.6,530 
			136.6,516.4 177.3,516.4 177.3,530 204.4,530 204.4,543.6 190.8,543.6 190.8,557.2 150.2,557.2 150.2,570.7 136.6,570.7 
			136.6,611.4 150.2,611.4 150.2,597.9 177.3,597.9 177.3,584.3 217.9,584.3 217.9,597.9 204.4,597.9 204.4,625 190.8,625 
			190.8,638.6 163.7,638.6 163.7,652.2 150.2,652.2 150.2,692.9 163.7,692.9 163.7,665.7 177.3,665.7 177.3,652.2 217.9,652.2 
			217.9,665.7 231.5,665.7 231.5,679.3 204.4,679.3 204.4,692.9 190.8,692.9 190.8,706.5 177.3,706.5 		"/>
		<rect x="204.4" y="136.4" class="st0" width="13.5" height="13.6"/>
		<polygon class="st0" points="204.4,272.1 190.8,272.1 190.8,258.5 204.4,258.5 204.4,217.8 190.8,217.8 190.8,204.2 177.3,204.2 
			177.3,163.5 190.8,163.5 190.8,149.9 204.4,149.9 204.4,163.5 217.9,163.5 217.9,177.1 231.5,177.1 231.5,204.2 217.9,204.2 
			217.9,231.4 231.5,231.4 231.5,245 217.9,245 217.9,258.5 258.6,258.5 258.6,272.1 272.1,272.1 272.1,285.7 258.6,285.7 
			258.6,299.3 231.5,299.3 231.5,285.7 204.4,285.7 		"/>
		<rect x="231.5" y="312.8" class="st0" width="13.5" height="13.6"/>
		<rect x="231.5" y="787.9" class="st0" width="13.5" height="13.6"/>
		<rect x="231.5" y="896.5" class="st0" width="13.5" height="13.6"/>
		<polygon class="st0" points="231.5,787.9 217.9,787.9 217.9,774.3 163.7,774.3 163.7,787.9 136.6,787.9 136.6,774.3 109.5,774.3 
			109.5,747.2 96,747.2 96,733.6 150.2,733.6 150.2,747.2 163.7,747.2 163.7,760.8 177.3,760.8 177.3,733.6 190.8,733.6 
			190.8,760.8 217.9,760.8 217.9,747.2 204.4,747.2 204.4,720 217.9,720 217.9,706.5 231.5,706.5 231.5,692.9 272.1,692.9 
			272.1,706.5 258.6,706.5 258.6,747.2 245,747.2 245,760.8 231.5,760.8 		"/>
		<rect x="272.1" y="285.7" class="st0" width="13.5" height="13.6"/>
		<polygon class="st0" points="231.5,231.4 231.5,217.8 245,217.8 245,204.2 258.6,204.2 258.6,190.7 245,190.7 245,136.4 
			258.6,136.4 258.6,122.8 285.7,122.8 285.7,136.4 272.1,136.4 272.1,149.9 285.7,149.9 285.7,177.1 272.1,177.1 272.1,190.7 
			299.2,190.7 299.2,204.2 272.1,204.2 272.1,217.8 299.2,217.8 299.2,231.4 312.8,231.4 312.8,258.5 272.1,258.5 272.1,245 
			258.6,245 258.6,231.4 		"/>
		<polygon class="st0" points="285.7,842.2 272.1,842.2 272.1,828.6 245,828.6 245,842.2 217.9,842.2 217.9,855.8 190.8,855.8 
			190.8,842.2 163.7,842.2 163.7,828.6 150.2,828.6 150.2,815 177.3,815 177.3,801.5 217.9,801.5 217.9,815 245,815 245,801.5 
			258.6,801.5 258.6,760.8 272.1,760.8 272.1,747.2 299.2,747.2 299.2,760.8 285.7,760.8 285.7,774.3 299.2,774.3 299.2,815 
			285.7,815 		"/>
		<rect x="312.8" y="258.5" class="st0" width="13.6" height="13.6"/>
		<rect x="312.8" y="910.1" class="st0" width="13.6" height="13.6"/>
		<polygon class="st0" points="312.8,190.7 299.2,190.7 299.2,177.1 312.8,177.1 312.8,163.5 353.4,163.5 353.4,177.1 367,177.1 
			367,190.7 353.4,190.7 353.4,204.2 312.8,204.2 		"/>
		<rect x="367" y="190.7" class="st0" width="13.5" height="13.6"/>
		<polygon class="st0" points="380.5,869.3 380.5,882.9 339.9,882.9 339.9,869.3 326.3,869.3 326.3,882.9 312.8,882.9 312.8,896.5 
			285.7,896.5 285.7,910.1 258.6,910.1 258.6,896.5 245,896.5 245,869.3 272.1,869.3 272.1,855.8 285.7,855.8 285.7,842.2 
			312.8,842.2 312.8,855.8 339.9,855.8 339.9,842.2 326.3,842.2 326.3,828.6 312.8,828.6 312.8,787.9 326.3,787.9 326.3,774.3 
			339.9,774.3 339.9,801.5 353.4,801.5 353.4,815 367,815 367,855.8 353.4,855.8 353.4,869.3 		"/>
		<rect x="643.5" y="190.7" class="st0" width="13.5" height="13.6"/>
		<polygon class="st0" points="643.5,882.9 643.5,896.5 670.6,896.5 670.6,910.1 684.1,910.1 684.1,923.6 697.7,923.6 697.7,937.2 
			643.5,937.2 643.5,923.6 629.9,923.6 629.9,910.1 616.4,910.1 616.4,896.5 548.6,896.5 548.6,910.1 570.2,910.1 570.2,923.6 
			529.6,923.6 529.6,910.1 494.4,910.1 494.4,923.6 453.8,923.6 453.8,910.1 475.4,910.1 475.4,896.5 407.6,896.5 407.6,910.1 
			394.1,910.1 394.1,923.6 380.5,923.6 380.5,937.2 326.3,937.2 326.3,923.6 339.9,923.6 339.9,910.1 353.4,910.1 353.4,896.5 
			380.5,896.5 380.5,882.9 421.2,882.9 421.2,869.3 407.6,869.3 407.6,855.8 394.1,855.8 394.1,815 407.6,815 407.6,828.6 
			434.7,828.6 434.7,842.2 448.3,842.2 448.3,882.9 488.9,882.9 488.9,896.5 535.1,896.5 535.1,882.9 575.7,882.9 575.7,842.2 
			589.3,842.2 589.3,828.6 616.4,828.6 616.4,815 629.9,815 629.9,855.8 616.4,855.8 616.4,869.3 602.8,869.3 602.8,882.9 		"/>
		<rect x="697.7" y="258.5" class="st0" width="13.6" height="13.6"/>
		<rect x="697.7" y="910.1" class="st0" width="13.6" height="13.6"/>
		<polygon class="st0" points="724.8,177.1 724.8,190.7 711.2,190.7 711.2,204.2 670.6,204.2 670.6,190.7 657,190.7 657,177.1 
			670.6,177.1 670.6,163.5 711.2,163.5 711.2,177.1 		"/>
		<rect x="738.3" y="285.7" class="st0" width="13.5" height="13.6"/>
		<polygon class="st0" points="738.3,842.2 738.3,855.8 751.9,855.8 751.9,869.3 779,869.3 779,896.5 765.4,896.5 765.4,910.1 
			738.3,910.1 738.3,896.5 711.2,896.5 711.2,882.9 697.7,882.9 697.7,869.3 684.1,869.3 684.1,882.9 643.5,882.9 643.5,869.3 
			670.6,869.3 670.6,855.8 657,855.8 657,815 670.6,815 670.6,801.5 684.1,801.5 684.1,774.3 697.7,774.3 697.7,787.9 711.2,787.9 
			711.2,828.6 697.7,828.6 697.7,842.2 684.1,842.2 684.1,855.8 711.2,855.8 711.2,842.2 		"/>
		<polygon class="st0" points="792.5,217.8 792.5,231.4 765.4,231.4 765.4,245 751.9,245 751.9,258.5 711.2,258.5 711.2,231.4 
			724.8,231.4 724.8,217.8 751.9,217.8 751.9,204.2 724.8,204.2 724.8,190.7 751.9,190.7 751.9,177.1 738.3,177.1 738.3,149.9 
			751.9,149.9 751.9,136.4 738.3,136.4 738.3,122.8 765.4,122.8 765.4,136.4 779,136.4 779,190.7 765.4,190.7 765.4,204.2 
			779,204.2 779,217.8 		"/>
		<rect x="779" y="312.8" class="st0" width="13.5" height="13.6"/>
		<rect x="779" y="787.9" class="st0" width="13.5" height="13.6"/>
		<rect x="779" y="896.5" class="st0" width="13.5" height="13.6"/>
		<rect x="806.1" y="136.4" class="st0" width="13.5" height="13.6"/>
		<polygon class="st0" points="833.2,258.5 833.2,272.1 819.6,272.1 819.6,285.7 792.5,285.7 792.5,299.3 765.4,299.3 765.4,285.7 
			751.9,285.7 751.9,272.1 765.4,272.1 765.4,258.5 806.1,258.5 806.1,245 792.5,245 792.5,231.4 806.1,231.4 806.1,204.2 
			792.5,204.2 792.5,177.1 806.1,177.1 806.1,163.5 819.6,163.5 819.6,149.9 833.2,149.9 833.2,163.5 846.7,163.5 846.7,204.2 
			833.2,204.2 833.2,217.8 819.6,217.8 819.6,258.5 		"/>
		<polygon class="st0" points="833.2,733.6 846.7,733.6 846.7,760.8 860.3,760.8 860.3,747.2 873.8,747.2 873.8,733.6 928,733.6 
			928,747.2 914.5,747.2 914.5,774.3 887.4,774.3 887.4,787.9 860.3,787.9 860.3,774.3 806.1,774.3 806.1,787.9 792.5,787.9 
			792.5,760.8 779,760.8 779,747.2 765.4,747.2 765.4,706.5 751.9,706.5 751.9,692.9 792.5,692.9 792.5,706.5 806.1,706.5 
			806.1,720 819.6,720 819.6,747.2 806.1,747.2 806.1,760.8 833.2,760.8 		"/>
		<polygon class="st0" points="765.4,801.5 779,801.5 779,815 806.1,815 806.1,801.5 846.7,801.5 846.7,815 873.8,815 873.8,828.6 
			860.3,828.6 860.3,842.2 833.2,842.2 833.2,855.8 806.1,855.8 806.1,842.2 779,842.2 779,828.6 751.9,828.6 751.9,842.2 
			738.3,842.2 738.3,815 724.8,815 724.8,774.3 738.3,774.3 738.3,760.8 724.8,760.8 724.8,747.2 751.9,747.2 751.9,760.8 
			765.4,760.8 		"/>
		<rect x="873.8" y="190.7" class="st0" width="13.5" height="13.6"/>
		<rect x="914.5" y="272.1" class="st0" width="13.5" height="13.6"/>
		<polygon class="st0" points="982.2,448.6 982.2,502.8 968.7,502.8 968.7,530 955.1,530 955.1,543.6 914.5,543.6 914.5,557.2 
			900.9,557.2 900.9,597.9 914.5,597.9 914.5,584.3 928,584.3 928,570.7 968.7,570.7 968.7,557.2 982.2,557.2 982.2,584.3 
			968.7,584.3 968.7,611.4 941.6,611.4 941.6,625 900.9,625 900.9,638.6 887.4,638.6 887.4,692.9 900.9,692.9 900.9,652.2 
			928,652.2 928,638.6 968.7,638.6 968.7,652.2 955.1,652.2 955.1,679.3 941.6,679.3 941.6,692.9 914.5,692.9 914.5,706.5 
			873.8,706.5 873.8,720 860.3,720 860.3,733.6 846.7,733.6 846.7,706.5 833.2,706.5 833.2,692.9 819.6,692.9 819.6,679.3 
			792.5,679.3 792.5,665.7 806.1,665.7 806.1,652.2 846.7,652.2 846.7,665.7 860.3,665.7 860.3,692.9 873.8,692.9 873.8,652.2 
			860.3,652.2 860.3,638.6 833.2,638.6 833.2,625 819.6,625 819.6,597.9 806.1,597.9 806.1,584.3 846.7,584.3 846.7,597.9 
			873.8,597.9 873.8,611.4 887.4,611.4 887.4,570.7 873.8,570.7 873.8,557.2 833.2,557.2 833.2,543.6 819.6,543.6 819.6,530 
			846.7,530 846.7,516.4 887.4,516.4 887.4,530 900.9,530 900.9,502.8 860.3,502.8 860.3,489.3 846.7,489.3 846.7,475.7 
			833.2,475.7 833.2,462.1 819.6,462.1 819.6,448.6 833.2,448.6 833.2,435 860.3,435 860.3,448.6 873.8,448.6 873.8,462.1 
			887.4,462.1 887.4,475.7 900.9,475.7 900.9,448.6 887.4,448.6 887.4,407.8 873.8,407.8 873.8,421.4 846.7,421.4 846.7,407.8 
			806.1,407.8 806.1,394.3 792.5,394.3 792.5,380.7 819.6,380.7 819.6,367.1 860.3,367.1 860.3,380.7 887.4,380.7 887.4,353.5 
			873.8,353.5 873.8,340 860.3,340 860.3,353.5 806.1,353.5 806.1,340 792.5,340 792.5,326.4 806.1,326.4 806.1,312.8 833.2,312.8 
			833.2,326.4 846.7,326.4 846.7,299.3 833.2,299.3 833.2,272.1 846.7,272.1 846.7,217.8 860.3,217.8 860.3,204.2 873.8,204.2 
			873.8,217.8 887.4,217.8 887.4,272.1 873.8,272.1 873.8,285.7 860.3,285.7 860.3,312.8 873.8,312.8 873.8,326.4 887.4,326.4 
			887.4,299.3 900.9,299.3 900.9,285.7 914.5,285.7 914.5,299.3 928,299.3 928,340 914.5,340 914.5,367.1 900.9,367.1 900.9,435 
			914.5,435 914.5,407.8 928,407.8 928,394.3 941.6,394.3 941.6,367.1 955.1,367.1 955.1,394.3 968.7,394.3 968.7,421.4 
			955.1,421.4 955.1,448.6 941.6,448.6 941.6,462.1 914.5,462.1 914.5,516.4 928,516.4 928,489.3 955.1,489.3 955.1,475.7 
			968.7,475.7 968.7,448.6 		"/>
	</g>
</g>
<g id="_x32_">
	<g>
		<rect x="819.6" y="828.4" class="st1" width="13.6" height="13.6"/>
		<g id="XMLID_3_">
			<g>
				<rect x="570.5" y="923.8" class="st0" width="13.6" height="13.6"/>
			</g>
			<g>
			</g>
		</g>
		<rect x="190.8" y="828.4" class="st1" width="13.6" height="13.6"/>
		<g>
			<rect x="480.9" y="909.9" class="st2" width="13.5" height="13.6"/>
			<rect x="548.6" y="882.7" class="st2" width="13.5" height="13.6"/>
			<rect x="589.3" y="869.1" class="st2" width="13.5" height="13.6"/>
			<rect x="629.9" y="909.9" class="st2" width="13.6" height="13.6"/>
			<polygon class="st2" points="697.7,923.4 697.7,937 643.5,937 643.5,923.4 670.6,923.4 670.6,909.9 684.1,909.9 684.1,923.4 			
				"/>
			<rect x="670.6" y="869.1" class="st2" width="13.5" height="13.6"/>
			<rect x="684.1" y="828.4" class="st2" width="13.5" height="13.6"/>
			<rect x="697.7" y="909.9" class="st2" width="13.6" height="13.6"/>
			<rect x="697.7" y="869.1" class="st2" width="13.6" height="13.6"/>
			<rect x="697.7" y="814.9" class="st2" width="13.6" height="13.6"/>
			<rect x="711.2" y="882.7" class="st2" width="27.1" height="13.6"/>
			<rect x="724.8" y="801.3" class="st2" width="13.5" height="13.6"/>
			<rect x="751.9" y="801.3" class="st2" width="13.5" height="13.6"/>
			<polygon class="st2" points="779,869.1 779,896.3 765.4,896.3 765.4,909.9 738.3,909.9 738.3,896.3 751.9,896.3 751.9,882.7 
				765.4,882.7 765.4,869.1 			"/>
			<rect x="779" y="896.3" class="st2" width="13.5" height="13.6"/>
			<rect x="779" y="747" class="st2" width="13.5" height="13.6"/>
			<rect x="779" y="828.4" class="st2" width="27.1" height="13.6"/>
			<rect x="806.1" y="842" class="st2" width="27.1" height="13.6"/>
			<rect x="806.1" y="733.4" class="st2" width="13.5" height="13.6"/>
			<rect x="806.1" y="271.9" class="st2" width="13.5" height="13.6"/>
			<rect x="819.6" y="760.6" class="st2" width="27.1" height="13.6"/>
			<rect x="819.6" y="204" class="st2" width="13.5" height="13.6"/>
			<rect x="833.2" y="692.7" class="st2" width="13.6" height="13.6"/>
			<polygon class="st2" points="873.8,814.9 873.8,828.4 860.3,828.4 860.3,842 833.2,842 833.2,828.4 846.7,828.4 846.7,814.9 			
				"/>
			<rect x="846.7" y="706.3" class="st2" width="13.5" height="13.6"/>
			<rect x="846.7" y="624.8" class="st2" width="13.5" height="13.6"/>
			<rect x="846.7" y="339.8" class="st2" width="13.5" height="13.6"/>
			<rect x="860.3" y="774.1" class="st2" width="27.1" height="13.6"/>
			<rect x="860.3" y="692.7" class="st2" width="13.5" height="13.6"/>
			<rect x="860.3" y="638.4" class="st2" width="13.5" height="13.6"/>
			<rect x="860.3" y="407.6" class="st2" width="13.5" height="13.6"/>
			<rect x="860.3" y="271.9" class="st2" width="13.5" height="13.6"/>
			<rect x="873.8" y="611.2" class="st2" width="13.5" height="13.6"/>
			<rect x="873.8" y="557" class="st2" width="13.5" height="13.6"/>
			<rect x="873.8" y="461.9" class="st2" width="13.5" height="13.6"/>
			<rect x="873.8" y="394.1" class="st2" width="13.5" height="13.6"/>
			<rect x="873.8" y="258.3" class="st2" width="13.5" height="13.6"/>
			<rect x="887.4" y="624.8" class="st2" width="13.5" height="13.6"/>
			<rect x="887.4" y="529.8" class="st2" width="13.5" height="13.6"/>
			<polygon class="st2" points="900.9,475.5 900.9,502.7 873.8,502.7 873.8,489.1 887.4,489.1 887.4,475.5 			"/>
			<rect x="900.9" y="760.6" class="st2" width="13.6" height="13.6"/>
			<rect x="900.9" y="692.7" class="st2" width="13.6" height="13.6"/>
			<rect x="900.9" y="543.4" class="st2" width="13.6" height="13.6"/>
			<rect x="900.9" y="339.8" class="st2" width="13.6" height="27.1"/>
			<rect x="914.5" y="679.1" class="st2" width="27.1" height="13.6"/>
			<rect x="914.5" y="326.2" class="st2" width="13.5" height="13.6"/>
			<rect x="914.5" y="611.2" class="st2" width="27.1" height="13.6"/>
			<rect x="928" y="448.4" class="st2" width="13.5" height="13.6"/>
			<rect x="941.6" y="665.5" class="st2" width="13.5" height="13.6"/>
			<rect x="941.6" y="529.8" class="st2" width="13.5" height="13.6"/>
			<rect x="941.6" y="421.2" class="st2" width="13.5" height="27.2"/>
			<rect x="955.1" y="597.7" class="st2" width="13.5" height="13.6"/>
			<rect x="955.1" y="502.7" class="st2" width="13.5" height="27.2"/>
			<rect x="955.1" y="407.6" class="st2" width="13.5" height="13.6"/>
			<rect x="968.7" y="489.1" class="st2" width="13.6" height="13.6"/>
			<rect x="529.6" y="909.9" class="st2" width="13.5" height="13.6"/>
			<rect x="461.8" y="882.7" class="st2" width="13.5" height="13.6"/>
			<rect x="421.2" y="869.1" class="st2" width="13.5" height="13.6"/>
			<rect x="380.5" y="909.9" class="st2" width="13.6" height="13.6"/>
			<polygon class="st2" points="380.5,923.4 380.5,937 326.3,937 326.3,923.4 339.9,923.4 339.9,909.9 353.4,909.9 353.4,923.4 			
				"/>
			<rect x="339.9" y="869.1" class="st2" width="13.5" height="13.6"/>
			<rect x="326.3" y="828.4" class="st2" width="13.5" height="13.6"/>
			<rect x="312.8" y="909.9" class="st2" width="13.6" height="13.6"/>
			<rect x="312.8" y="869.1" class="st2" width="13.6" height="13.6"/>
			<rect x="312.8" y="814.9" class="st2" width="13.6" height="13.6"/>
			<rect x="285.7" y="882.7" class="st2" width="27.1" height="13.6"/>
			<rect x="285.7" y="801.3" class="st2" width="13.5" height="13.6"/>
			<polygon class="st2" points="285.7,896.3 285.7,909.9 258.6,909.9 258.6,896.3 245,896.3 245,869.1 258.6,869.1 258.6,882.7 
				272.1,882.7 272.1,896.3 			"/>
			<rect x="258.6" y="801.3" class="st2" width="13.5" height="13.6"/>
			<rect x="231.5" y="896.3" class="st2" width="13.5" height="13.6"/>
			<rect x="217.9" y="828.4" class="st2" width="27.1" height="13.6"/>
			<rect x="231.5" y="747" class="st2" width="13.5" height="13.6"/>
			<rect x="204.4" y="733.4" class="st2" width="13.5" height="13.6"/>
			<rect x="204.4" y="271.9" class="st2" width="13.5" height="13.6"/>
			<rect x="190.8" y="842" class="st2" width="27.1" height="13.6"/>
			<rect x="190.8" y="204" class="st2" width="13.5" height="13.6"/>
			<polygon class="st2" points="190.8,828.4 190.8,842 163.7,842 163.7,828.4 150.2,828.4 150.2,814.9 177.3,814.9 177.3,828.4 			
				"/>
			<rect x="177.3" y="760.6" class="st2" width="27.1" height="13.6"/>
			<rect x="177.3" y="692.7" class="st2" width="13.6" height="13.6"/>
			<rect x="163.7" y="706.3" class="st2" width="13.5" height="13.6"/>
			<rect x="163.7" y="624.8" class="st2" width="13.5" height="13.6"/>
			<rect x="163.7" y="339.8" class="st2" width="13.5" height="13.6"/>
			<rect x="136.6" y="774.1" class="st2" width="27.1" height="13.6"/>
			<rect x="150.2" y="692.7" class="st2" width="13.5" height="13.6"/>
			<rect x="150.2" y="638.4" class="st2" width="13.5" height="13.6"/>
			<rect x="150.2" y="407.6" class="st2" width="13.5" height="13.6"/>
			<rect x="150.2" y="271.9" class="st2" width="13.5" height="13.6"/>
			<rect x="136.6" y="611.2" class="st2" width="13.5" height="13.6"/>
			<rect x="136.6" y="557" class="st2" width="13.5" height="13.6"/>
			<rect x="136.6" y="461.9" class="st2" width="13.5" height="13.6"/>
			<rect x="136.6" y="394.1" class="st2" width="13.5" height="13.6"/>
			<rect x="136.6" y="258.3" class="st2" width="13.5" height="13.6"/>
			<rect x="123.1" y="624.8" class="st2" width="13.5" height="13.6"/>
			<rect x="123.1" y="529.8" class="st2" width="13.5" height="13.6"/>
			<polygon class="st2" points="150.2,489.1 150.2,502.7 123.1,502.7 123.1,475.5 136.6,475.5 136.6,489.1 			"/>
			<rect x="109.5" y="760.6" class="st2" width="13.6" height="13.6"/>
			<rect x="109.5" y="692.7" class="st2" width="13.6" height="13.6"/>
			<rect x="109.5" y="543.4" class="st2" width="13.6" height="13.6"/>
			<rect x="109.5" y="339.8" class="st2" width="13.6" height="27.1"/>
			<rect x="82.4" y="679.1" class="st2" width="27.1" height="13.6"/>
			<rect x="96" y="326.2" class="st2" width="13.5" height="13.6"/>
			<rect x="82.4" y="611.2" class="st2" width="27.1" height="13.6"/>
			<rect x="82.4" y="448.4" class="st2" width="13.5" height="13.6"/>
			<rect x="68.9" y="665.5" class="st2" width="13.5" height="13.6"/>
			<rect x="68.9" y="529.8" class="st2" width="13.5" height="13.6"/>
			<rect x="68.9" y="421.2" class="st2" width="13.5" height="27.2"/>
			<rect x="55.3" y="597.7" class="st2" width="13.5" height="13.6"/>
			<rect x="55.3" y="502.7" class="st2" width="13.5" height="27.2"/>
			<rect x="55.3" y="407.6" class="st2" width="13.5" height="13.6"/>
			<rect x="41.8" y="489.1" class="st2" width="13.6" height="13.6"/>
		</g>
		<g>
			<polygon class="st0" points="670.6,896.3 670.6,923.4 643.5,923.4 643.5,909.9 616.4,909.9 616.4,896.3 562.2,896.3 562.2,882.7 
				575.7,882.7 575.7,842 589.3,842 589.3,855.6 602.8,855.6 602.8,842 616.4,842 616.4,828.4 629.9,828.4 629.9,855.6 616.4,855.6 
				616.4,869.1 589.3,869.1 589.3,882.7 643.5,882.7 643.5,896.3 			"/>
			<rect x="643.5" y="869.1" class="st0" width="27.1" height="13.6"/>
			<polygon class="st0" points="765.4,869.1 765.4,882.7 751.9,882.7 751.9,896.3 738.3,896.3 738.3,882.7 711.2,882.7 711.2,869.1 
				670.6,869.1 670.6,855.6 657,855.6 657,814.9 684.1,814.9 684.1,801.3 697.7,801.3 697.7,787.7 711.2,787.7 711.2,814.9 
				697.7,814.9 697.7,828.4 684.1,828.4 684.1,855.6 711.2,855.6 711.2,842 738.3,842 738.3,855.6 724.8,855.6 724.8,869.1 			"/>
			<polygon class="st0" points="724.8,176.9 724.8,190.5 711.2,190.5 711.2,204 697.7,204 697.7,190.5 684.1,190.5 684.1,176.9 
				697.7,176.9 697.7,163.3 711.2,163.3 711.2,176.9 			"/>
			<rect x="779" y="787.7" class="st0" width="13.5" height="13.6"/>
			<rect x="779" y="692.7" class="st0" width="13.5" height="13.6"/>
			<polygon class="st0" points="792.5,217.6 792.5,231.2 751.9,231.2 751.9,244.8 724.8,244.8 724.8,231.2 738.3,231.2 738.3,217.6 
				751.9,217.6 751.9,204 724.8,204 724.8,190.5 751.9,190.5 751.9,149.7 765.4,149.7 765.4,163.3 779,163.3 779,190.5 765.4,190.5 
				765.4,204 779,204 779,217.6 			"/>
			<polygon class="st0" points="806.1,760.6 819.6,760.6 819.6,774.1 806.1,774.1 806.1,787.7 792.5,787.7 792.5,747 765.4,747 
				765.4,733.4 779,733.4 779,719.8 792.5,719.8 792.5,706.3 806.1,706.3 806.1,719.8 819.6,719.8 819.6,733.4 806.1,733.4 			"/>
			<rect x="819.6" y="394.1" class="st0" width="13.5" height="13.6"/>
			<polygon class="st0" points="846.7,190.5 846.7,204 819.6,204 819.6,258.3 833.2,258.3 833.2,271.9 806.1,271.9 806.1,285.5 
				792.5,285.5 792.5,299.1 779,299.1 779,285.5 765.4,285.5 765.4,271.9 792.5,271.9 792.5,258.3 806.1,258.3 806.1,244.8 
				792.5,244.8 792.5,231.2 806.1,231.2 806.1,204 792.5,204 792.5,190.5 806.1,190.5 806.1,176.9 833.2,176.9 833.2,190.5 			"/>
			<polygon class="st0" points="846.7,801.3 846.7,828.4 819.6,828.4 819.6,842 806.1,842 806.1,828.4 751.9,828.4 751.9,842 
				738.3,842 738.3,801.3 724.8,801.3 724.8,774.1 751.9,774.1 751.9,760.6 765.4,760.6 765.4,801.3 751.9,801.3 751.9,814.9 
				765.4,814.9 765.4,801.3 779,801.3 779,814.9 833.2,814.9 833.2,801.3 			"/>
			<rect x="833.2" y="733.4" class="st0" width="13.6" height="27.1"/>
			<polygon class="st0" points="928,733.4 928,747 914.5,747 914.5,760.6 900.9,760.6 900.9,774.1 846.7,774.1 846.7,760.6 
				860.3,760.6 860.3,747 900.9,747 900.9,733.4 			"/>
			<rect x="846.7" y="719.8" class="st0" width="13.5" height="13.6"/>
			<polygon class="st0" points="860.3,665.5 860.3,706.3 846.7,706.3 846.7,692.7 819.6,692.7 819.6,679.1 806.1,679.1 806.1,665.5 
				833.2,665.5 833.2,652 846.7,652 846.7,665.5 			"/>
			<rect x="860.3" y="706.3" class="st0" width="13.5" height="13.6"/>
			<polygon class="st0" points="900.9,692.7 900.9,706.3 873.8,706.3 873.8,638.4 860.3,638.4 860.3,624.8 846.7,624.8 846.7,638.4 
				833.2,638.4 833.2,624.8 819.6,624.8 819.6,611.2 833.2,611.2 833.2,597.7 846.7,597.7 846.7,611.2 860.3,611.2 860.3,597.7 
				873.8,597.7 873.8,624.8 887.4,624.8 887.4,692.7 			"/>
			<polygon class="st0" points="887.4,475.5 887.4,489.1 873.8,489.1 873.8,502.7 860.3,502.7 860.3,475.5 846.7,475.5 846.7,448.4 
				873.8,448.4 873.8,475.5 			"/>
			<polygon class="st0" points="982.2,570.5 982.2,584.1 968.7,584.1 968.7,597.7 955.1,597.7 955.1,611.2 914.5,611.2 914.5,624.8 
				887.4,624.8 887.4,557 860.3,557 860.3,543.4 846.7,543.4 846.7,529.8 860.3,529.8 860.3,516.2 887.4,516.2 887.4,543.4 
				900.9,543.4 900.9,597.7 928,597.7 928,584.1 941.6,584.1 941.6,570.5 			"/>
			<polygon class="st0" points="968.7,638.4 968.7,652 955.1,652 955.1,665.5 941.6,665.5 941.6,679.1 914.5,679.1 914.5,692.7 
				900.9,692.7 900.9,665.5 914.5,665.5 914.5,652 941.6,652 941.6,638.4 			"/>
			<polygon class="st0" points="982.2,461.9 982.2,489.1 968.7,489.1 968.7,502.7 955.1,502.7 955.1,529.8 941.6,529.8 941.6,543.4 
				900.9,543.4 900.9,448.4 887.4,448.4 887.4,394.1 873.8,394.1 873.8,407.6 860.3,407.6 860.3,421.2 846.7,421.2 846.7,394.1 
				833.2,394.1 833.2,380.5 887.4,380.5 887.4,353.3 873.8,353.3 873.8,339.8 846.7,339.8 846.7,353.3 819.6,353.3 819.6,326.2 
				846.7,326.2 846.7,299.1 833.2,299.1 833.2,271.9 846.7,271.9 846.7,244.8 860.3,244.8 860.3,217.6 887.4,217.6 887.4,258.3 
				873.8,258.3 873.8,271.9 860.3,271.9 860.3,312.6 873.8,312.6 873.8,326.2 887.4,326.2 887.4,312.6 900.9,312.6 900.9,299.1 
				928,299.1 928,326.2 914.5,326.2 914.5,339.8 900.9,339.8 900.9,434.8 928,434.8 928,407.6 941.6,407.6 941.6,380.5 955.1,380.5 
				955.1,394.1 968.7,394.1 968.7,407.6 955.1,407.6 955.1,421.2 941.6,421.2 941.6,448.4 928,448.4 928,461.9 914.5,461.9 
				914.5,516.2 941.6,516.2 941.6,489.1 955.1,489.1 955.1,475.5 968.7,475.5 968.7,461.9 			"/>
			<polygon class="st0" points="570.2,909.9 570.2,923.4 543.1,923.4 543.1,909.9 480.9,909.9 480.9,923.4 453.8,923.4 453.8,909.9 
				475.4,909.9 475.4,882.7 488.9,882.7 488.9,896.3 535.1,896.3 535.1,882.7 548.6,882.7 548.6,909.9 			"/>
			<polygon class="st0" points="461.8,882.7 461.8,896.3 407.6,896.3 407.6,909.9 380.5,909.9 380.5,923.4 353.4,923.4 353.4,896.3 
				380.5,896.3 380.5,882.7 434.7,882.7 434.7,869.1 407.6,869.1 407.6,855.6 394.1,855.6 394.1,828.4 407.6,828.4 407.6,842 
				421.2,842 421.2,855.6 434.7,855.6 434.7,842 448.3,842 448.3,882.7 			"/>
			<rect x="353.4" y="869.1" class="st0" width="27.1" height="13.6"/>
			<polygon class="st0" points="367,814.9 367,855.6 353.4,855.6 353.4,869.1 312.8,869.1 312.8,882.7 285.7,882.7 285.7,896.3 
				272.1,896.3 272.1,882.7 258.6,882.7 258.6,869.1 299.2,869.1 299.2,855.6 285.7,855.6 285.7,842 312.8,842 312.8,855.6 
				339.9,855.6 339.9,828.4 326.3,828.4 326.3,814.9 312.8,814.9 312.8,787.7 326.3,787.7 326.3,801.3 339.9,801.3 339.9,814.9 			
				"/>
			<polygon class="st0" points="339.9,176.9 339.9,190.5 326.3,190.5 326.3,204 312.8,204 312.8,190.5 299.2,190.5 299.2,176.9 
				312.8,176.9 312.8,163.3 326.3,163.3 326.3,176.9 			"/>
			<polygon class="st0" points="299.2,774.1 299.2,801.3 285.7,801.3 285.7,842 272.1,842 272.1,828.4 217.9,828.4 217.9,842 
				204.4,842 204.4,828.4 177.3,828.4 177.3,801.3 190.8,801.3 190.8,814.9 245,814.9 245,801.3 258.6,801.3 258.6,814.9 
				272.1,814.9 272.1,801.3 258.6,801.3 258.6,760.6 272.1,760.6 272.1,774.1 			"/>
			<polygon class="st0" points="272.1,204 272.1,217.6 285.7,217.6 285.7,231.2 299.2,231.2 299.2,244.8 272.1,244.8 272.1,231.2 
				231.5,231.2 231.5,217.6 245,217.6 245,204 258.6,204 258.6,190.5 245,190.5 245,163.3 258.6,163.3 258.6,149.7 272.1,149.7 
				272.1,190.5 299.2,190.5 299.2,204 			"/>
			<rect x="231.5" y="787.7" class="st0" width="13.5" height="13.6"/>
			<rect x="231.5" y="692.7" class="st0" width="13.5" height="13.6"/>
			<polygon class="st0" points="258.6,733.4 258.6,747 231.5,747 231.5,787.7 217.9,787.7 217.9,774.1 204.4,774.1 204.4,760.6 
				217.9,760.6 217.9,733.4 204.4,733.4 204.4,719.8 217.9,719.8 217.9,706.3 231.5,706.3 231.5,719.8 245,719.8 245,733.4 			"/>
			<polygon class="st0" points="258.6,271.9 258.6,285.5 245,285.5 245,299.1 231.5,299.1 231.5,285.5 217.9,285.5 217.9,271.9 
				190.8,271.9 190.8,258.3 204.4,258.3 204.4,204 177.3,204 177.3,190.5 190.8,190.5 190.8,176.9 217.9,176.9 217.9,190.5 
				231.5,190.5 231.5,204 217.9,204 217.9,231.2 231.5,231.2 231.5,244.8 217.9,244.8 217.9,258.3 231.5,258.3 231.5,271.9 			"/>
			<rect x="190.8" y="394.1" class="st0" width="13.5" height="13.6"/>
			<rect x="177.3" y="733.4" class="st0" width="13.6" height="27.1"/>
			<polygon class="st0" points="177.3,760.6 177.3,774.1 123.1,774.1 123.1,760.6 109.5,760.6 109.5,747 96,747 96,733.4 
				123.1,733.4 123.1,747 163.7,747 163.7,760.6 			"/>
			<rect x="163.7" y="719.8" class="st0" width="13.5" height="13.6"/>
			<polygon class="st0" points="217.9,665.5 217.9,679.1 204.4,679.1 204.4,692.7 177.3,692.7 177.3,706.3 163.7,706.3 163.7,665.5 
				177.3,665.5 177.3,652 190.8,652 190.8,665.5 			"/>
			<rect x="150.2" y="706.3" class="st0" width="13.5" height="13.6"/>
			<polygon class="st0" points="177.3,448.4 177.3,475.5 163.7,475.5 163.7,502.7 150.2,502.7 150.2,489.1 136.6,489.1 136.6,475.5 
				150.2,475.5 150.2,448.4 			"/>
			<polygon class="st0" points="204.4,611.2 204.4,624.8 190.8,624.8 190.8,638.4 177.3,638.4 177.3,624.8 163.7,624.8 163.7,638.4 
				150.2,638.4 150.2,706.3 123.1,706.3 123.1,692.7 136.6,692.7 136.6,624.8 150.2,624.8 150.2,597.7 163.7,597.7 163.7,611.2 
				177.3,611.2 177.3,597.7 190.8,597.7 190.8,611.2 			"/>
			<polygon class="st0" points="177.3,529.8 177.3,543.4 163.7,543.4 163.7,557 136.6,557 136.6,624.8 109.5,624.8 109.5,611.2 
				68.9,611.2 68.9,597.7 55.3,597.7 55.3,584.1 41.8,584.1 41.8,570.5 82.4,570.5 82.4,584.1 96,584.1 96,597.7 123.1,597.7 
				123.1,543.4 136.6,543.4 136.6,516.2 163.7,516.2 163.7,529.8 			"/>
			<polygon class="st0" points="123.1,665.5 123.1,692.7 109.5,692.7 109.5,679.1 82.4,679.1 82.4,665.5 68.9,665.5 68.9,652 
				55.3,652 55.3,638.4 82.4,638.4 82.4,652 109.5,652 109.5,665.5 			"/>
			<polygon class="st0" points="204.4,326.2 204.4,353.3 177.3,353.3 177.3,339.8 150.2,339.8 150.2,353.3 136.6,353.3 136.6,380.5 
				190.8,380.5 190.8,394.1 177.3,394.1 177.3,421.2 163.7,421.2 163.7,407.6 150.2,407.6 150.2,394.1 136.6,394.1 136.6,448.4 
				123.1,448.4 123.1,543.4 82.4,543.4 82.4,529.8 68.9,529.8 68.9,502.7 55.3,502.7 55.3,489.1 41.8,489.1 41.8,461.9 55.3,461.9 
				55.3,475.5 68.9,475.5 68.9,489.1 82.4,489.1 82.4,516.2 109.5,516.2 109.5,461.9 96,461.9 96,448.4 82.4,448.4 82.4,421.2 
				68.9,421.2 68.9,407.6 55.3,407.6 55.3,394.1 68.9,394.1 68.9,380.5 82.4,380.5 82.4,407.6 96,407.6 96,434.8 123.1,434.8 
				123.1,339.8 109.5,339.8 109.5,326.2 96,326.2 96,299.1 123.1,299.1 123.1,312.6 136.6,312.6 136.6,326.2 150.2,326.2 
				150.2,312.6 163.7,312.6 163.7,271.9 150.2,271.9 150.2,258.3 136.6,258.3 136.6,217.6 163.7,217.6 163.7,244.8 177.3,244.8 
				177.3,271.9 190.8,271.9 190.8,299.1 177.3,299.1 177.3,326.2 			"/>
		</g>
		<g>
			<polygon class="st3" points="616.4,828.4 616.4,842 602.8,842 602.8,855.6 589.3,855.6 589.3,828.4 			"/>
			<rect x="616.4" y="814.9" class="st3" width="13.5" height="13.6"/>
			<rect x="643.5" y="190.5" class="st3" width="13.5" height="13.6"/>
			<rect x="670.6" y="801.3" class="st3" width="13.5" height="13.6"/>
			<polygon class="st3" points="684.1,176.9 684.1,190.5 697.7,190.5 697.7,204 670.6,204 670.6,190.5 657,190.5 657,176.9 
				670.6,176.9 670.6,163.3 697.7,163.3 697.7,176.9 			"/>
			<rect x="684.1" y="774.1" class="st3" width="13.5" height="27.1"/>
			<rect x="697.7" y="258.3" class="st3" width="13.6" height="13.6"/>
			<rect x="724.8" y="855.6" class="st3" width="27.1" height="13.6"/>
			<polygon class="st3" points="751.9,747 751.9,774.1 738.3,774.1 738.3,760.6 724.8,760.6 724.8,747 			"/>
			<polygon class="st3" points="751.9,244.8 751.9,258.3 711.2,258.3 711.2,231.2 724.8,231.2 724.8,244.8 			"/>
			<rect x="724.8" y="217.6" class="st3" width="13.5" height="13.6"/>
			<rect x="738.3" y="285.5" class="st3" width="13.5" height="13.6"/>
			<rect x="738.3" y="149.7" class="st3" width="13.5" height="27.2"/>
			<rect x="751.9" y="271.9" class="st3" width="13.5" height="13.6"/>
			<rect x="751.9" y="231.2" class="st3" width="13.5" height="13.6"/>
			<polygon class="st3" points="792.5,706.3 792.5,719.8 779,719.8 779,733.4 765.4,733.4 765.4,706.3 751.9,706.3 751.9,692.7 
				779,692.7 779,706.3 			"/>
			<rect x="765.4" y="285.5" class="st3" width="13.6" height="13.6"/>
			<rect x="765.4" y="258.3" class="st3" width="27.1" height="13.6"/>
			<polygon class="st3" points="779,136.2 779,163.3 765.4,163.3 765.4,149.7 751.9,149.7 751.9,136.2 738.3,136.2 738.3,122.6 
				765.4,122.6 765.4,136.2 			"/>
			<rect x="779" y="312.6" class="st3" width="13.5" height="13.6"/>
			<rect x="792.5" y="665.5" class="st3" width="13.5" height="13.6"/>
			<rect x="792.5" y="176.9" class="st3" width="13.5" height="13.6"/>
			<rect x="806.1" y="801.3" class="st3" width="27.1" height="13.6"/>
			<rect x="806.1" y="652" class="st3" width="27.1" height="13.6"/>
			<polygon class="st3" points="833.2,312.6 833.2,326.2 819.6,326.2 819.6,353.3 806.1,353.3 806.1,339.8 792.5,339.8 792.5,326.2 
				806.1,326.2 806.1,312.6 			"/>
			<rect x="806.1" y="136.2" class="st3" width="13.5" height="13.6"/>
			<polygon class="st3" points="860.3,543.4 860.3,557 833.2,557 833.2,543.4 819.6,543.4 819.6,529.8 846.7,529.8 846.7,543.4 			
				"/>
			<polygon class="st3" points="846.7,163.3 846.7,190.5 833.2,190.5 833.2,176.9 806.1,176.9 806.1,163.3 819.6,163.3 819.6,149.7 
				833.2,149.7 833.2,163.3 			"/>
			<polygon class="st3" points="846.7,584.1 846.7,597.7 833.2,597.7 833.2,611.2 819.6,611.2 819.6,597.7 806.1,597.7 806.1,584.1 
							"/>
			<polygon class="st3" points="860.3,434.8 860.3,448.4 846.7,448.4 846.7,475.5 833.2,475.5 833.2,461.9 819.6,461.9 819.6,448.4 
				833.2,448.4 833.2,434.8 			"/>
			<rect x="833.2" y="394.1" class="st3" width="13.6" height="13.6"/>
			<polygon class="st3" points="860.3,366.9 860.3,380.5 833.2,380.5 833.2,394.1 819.6,394.1 819.6,407.6 806.1,407.6 806.1,394.1 
				792.5,394.1 792.5,380.5 819.6,380.5 819.6,366.9 			"/>
			<rect x="846.7" y="597.7" class="st3" width="13.5" height="13.6"/>
			<rect x="846.7" y="516.2" class="st3" width="13.5" height="13.6"/>
			<rect x="846.7" y="475.5" class="st3" width="13.5" height="13.6"/>
			<rect x="846.7" y="217.6" class="st3" width="13.5" height="27.2"/>
			<rect x="860.3" y="204" class="st3" width="13.5" height="13.6"/>
			<rect x="873.8" y="733.4" class="st3" width="27.1" height="13.6"/>
			<rect x="873.8" y="190.5" class="st3" width="13.5" height="13.6"/>
			<rect x="887.4" y="299.1" class="st3" width="13.5" height="13.6"/>
			<rect x="900.9" y="652" class="st3" width="13.6" height="13.6"/>
			<rect x="900.9" y="285.5" class="st3" width="13.6" height="13.6"/>
			<rect x="914.5" y="584.1" class="st3" width="13.5" height="13.6"/>
			<rect x="914.5" y="407.6" class="st3" width="13.5" height="27.1"/>
			<rect x="914.5" y="271.9" class="st3" width="13.5" height="13.6"/>
			<rect x="928" y="638.4" class="st3" width="13.5" height="13.6"/>
			<rect x="928" y="570.5" class="st3" width="13.5" height="13.6"/>
			<rect x="928" y="489.1" class="st3" width="13.5" height="27.2"/>
			<rect x="928" y="394.1" class="st3" width="13.5" height="13.6"/>
			<rect x="941.6" y="366.9" class="st3" width="13.5" height="13.6"/>
			<rect x="968.7" y="557" class="st3" width="13.6" height="13.6"/>
			<rect x="968.7" y="448.4" class="st3" width="13.6" height="13.6"/>
			<polygon class="st3" points="434.7,828.4 434.7,855.6 421.2,855.6 421.2,842 407.6,842 407.6,828.4 			"/>
			<rect x="394.1" y="814.9" class="st3" width="13.5" height="13.6"/>
			<rect x="367" y="190.5" class="st3" width="13.5" height="13.6"/>
			<polygon class="st3" points="367,176.9 367,190.5 353.4,190.5 353.4,204 326.3,204 326.3,190.5 339.9,190.5 339.9,176.9 
				326.3,176.9 326.3,163.3 353.4,163.3 353.4,176.9 			"/>
			<rect x="339.9" y="801.3" class="st3" width="13.5" height="13.6"/>
			<rect x="326.3" y="774.1" class="st3" width="13.5" height="27.1"/>
			<rect x="312.8" y="258.3" class="st3" width="13.6" height="13.6"/>
			<polygon class="st3" points="312.8,231.2 312.8,258.3 272.1,258.3 272.1,244.8 299.2,244.8 299.2,231.2 			"/>
			<rect x="285.7" y="217.6" class="st3" width="13.5" height="13.6"/>
			<rect x="272.1" y="855.6" class="st3" width="27.1" height="13.6"/>
			<polygon class="st3" points="299.2,747 299.2,760.6 285.7,760.6 285.7,774.1 272.1,774.1 272.1,747 			"/>
			<rect x="272.1" y="285.5" class="st3" width="13.5" height="13.6"/>
			<rect x="272.1" y="149.7" class="st3" width="13.5" height="27.2"/>
			<polygon class="st3" points="272.1,692.7 272.1,706.3 258.6,706.3 258.6,733.4 245,733.4 245,719.8 231.5,719.8 231.5,706.3 
				245,706.3 245,692.7 			"/>
			<rect x="258.6" y="271.9" class="st3" width="13.5" height="13.6"/>
			<rect x="258.6" y="231.2" class="st3" width="13.5" height="13.6"/>
			<rect x="245" y="285.5" class="st3" width="13.6" height="13.6"/>
			<polygon class="st3" points="285.7,122.6 285.7,136.2 272.1,136.2 272.1,149.7 258.6,149.7 258.6,163.3 245,163.3 245,136.2 
				258.6,136.2 258.6,122.6 			"/>
			<rect x="231.5" y="312.6" class="st3" width="13.5" height="13.6"/>
			<rect x="231.5" y="258.3" class="st3" width="27.1" height="13.6"/>
			<rect x="217.9" y="665.5" class="st3" width="13.5" height="13.6"/>
			<polygon class="st3" points="231.5,326.2 231.5,339.8 217.9,339.8 217.9,353.3 204.4,353.3 204.4,326.2 190.8,326.2 190.8,312.6 
				217.9,312.6 217.9,326.2 			"/>
			<rect x="217.9" y="176.9" class="st3" width="13.5" height="13.6"/>
			<rect x="190.8" y="652" class="st3" width="27.1" height="13.6"/>
			<polygon class="st3" points="231.5,380.5 231.5,394.1 217.9,394.1 217.9,407.6 204.4,407.6 204.4,394.1 190.8,394.1 190.8,380.5 
				163.7,380.5 163.7,366.9 204.4,366.9 204.4,380.5 			"/>
			<rect x="204.4" y="136.2" class="st3" width="13.5" height="13.6"/>
			<rect x="190.8" y="801.3" class="st3" width="27.1" height="13.6"/>
			<polygon class="st3" points="217.9,584.1 217.9,597.7 204.4,597.7 204.4,611.2 190.8,611.2 190.8,597.7 177.3,597.7 177.3,584.1 
							"/>
			<polygon class="st3" points="204.4,448.4 204.4,461.9 190.8,461.9 190.8,475.5 177.3,475.5 177.3,448.4 163.7,448.4 163.7,434.8 
				190.8,434.8 190.8,448.4 			"/>
			<rect x="177.3" y="394.1" class="st3" width="13.6" height="13.6"/>
			<polygon class="st3" points="217.9,163.3 217.9,176.9 190.8,176.9 190.8,190.5 177.3,190.5 177.3,163.3 190.8,163.3 190.8,149.7 
				204.4,149.7 204.4,163.3 			"/>
			<rect x="163.7" y="597.7" class="st3" width="13.5" height="13.6"/>
			<polygon class="st3" points="204.4,529.8 204.4,543.4 190.8,543.4 190.8,557 163.7,557 163.7,543.4 177.3,543.4 177.3,529.8 			
				"/>
			<rect x="163.7" y="516.2" class="st3" width="13.5" height="13.6"/>
			<rect x="163.7" y="475.5" class="st3" width="13.5" height="13.6"/>
			<rect x="163.7" y="217.6" class="st3" width="13.5" height="27.2"/>
			<rect x="150.2" y="204" class="st3" width="13.5" height="13.6"/>
			<rect x="136.6" y="190.5" class="st3" width="13.5" height="13.6"/>
			<rect x="123.1" y="733.4" class="st3" width="27.1" height="13.6"/>
			<rect x="123.1" y="299.1" class="st3" width="13.5" height="13.6"/>
			<rect x="109.5" y="652" class="st3" width="13.6" height="13.6"/>
			<rect x="109.5" y="285.5" class="st3" width="13.6" height="13.6"/>
			<rect x="96" y="584.1" class="st3" width="13.5" height="13.6"/>
			<rect x="96" y="407.6" class="st3" width="13.5" height="27.1"/>
			<rect x="96" y="271.9" class="st3" width="13.5" height="13.6"/>
			<rect x="82.4" y="638.4" class="st3" width="13.5" height="13.6"/>
			<rect x="82.4" y="570.5" class="st3" width="13.5" height="13.6"/>
			<rect x="82.4" y="489.1" class="st3" width="13.5" height="27.2"/>
			<rect x="82.4" y="394.1" class="st3" width="13.5" height="13.6"/>
			<rect x="68.9" y="366.9" class="st3" width="13.5" height="13.6"/>
			<rect x="41.8" y="557" class="st3" width="13.6" height="13.6"/>
			<rect x="41.8" y="448.4" class="st3" width="13.6" height="13.6"/>
		</g>
		<g id="XMLID_2_">
			<g>
				<rect x="440" y="923.8" class="st0" width="13.6" height="13.6"/>
			</g>
			<g>
			</g>
		</g>
	</g>
</g>
<g id="Корона__x28_ф_x29_">
	<g>
		<rect x="451" y="21.8" class="st0" width="13.5" height="13.6"/>
		<rect x="478.1" y="35.3" class="st0" width="13.5" height="13.6"/>
		<rect x="505.2" y="21.8" class="st0" width="13.6" height="13.6"/>
		<rect x="532.3" y="35.3" class="st0" width="13.5" height="13.6"/>
		<rect x="559.4" y="21.8" class="st0" width="13.5" height="13.6"/>
		<path class="st0" d="M613.6,103.2V76.1h-13.5V48.9h-13.5v40.7H573V76.1h-13.5V62.5h-13.5v27.2h13.5v13.6h-27.1V89.6h-13.5V48.9
			h-13.6v40.7h-13.5v13.6h-27.1V89.6h13.5V62.5h-13.5v13.6H451v13.6h-13.6V48.9h-13.5v27.2h-13.5v27.1h-13.5v54.3h13.5v13.6h13.5
			v13.6h13.5v13.6h149.1v-13.6h13.5v-13.6h13.5v-13.6h13.5v-54.3H613.6z M491.7,116.8h13.5v-13.6h13.6v13.6h13.5v27.2h-13.5v13.6
			h-13.6v-13.6h-13.5V116.8z M410.4,143.9v-27.2h13.5v-13.6h13.5v27.1h-13.5v13.6H410.4z M451,171.1v-13.6h-13.6v-13.6H451v-27.2
			h13.5v27.2h13.5v13.6h13.5v13.6H451z M573,157.5v13.6h-40.6v-13.6h13.5v-13.6h13.5v-27.2H573v27.2h13.6v13.6H573z M613.6,143.9
			h-13.5v-13.6h-13.5v-27.1h13.5v13.6h13.5V143.9z"/>
	</g>
</g>
<g id="Корона">
	<g>
		<g>
			<polygon class="st0" points="464.6,171.1 464.6,184.7 437.5,184.7 437.5,171.1 410.4,171.1 410.4,157.5 396.8,157.5 396.8,130.4 
				410.4,130.4 410.4,143.9 423.9,143.9 423.9,130.4 437.5,130.4 437.5,157.5 451,157.5 451,171.1 			"/>
			<polygon class="st0" points="559.4,116.8 559.4,143.9 545.9,143.9 545.9,157.5 532.3,157.5 532.3,171.1 545.9,171.1 545.9,184.7 
				518.8,184.7 518.8,171.1 505.2,171.1 505.2,184.7 478.1,184.7 478.1,171.1 491.7,171.1 491.7,157.5 478.1,157.5 478.1,143.9 
				464.6,143.9 464.6,116.8 478.1,116.8 478.1,130.4 491.7,130.4 491.7,143.9 505.2,143.9 505.2,157.5 518.8,157.5 518.8,143.9 
				532.3,143.9 532.3,130.4 545.9,130.4 545.9,116.8 			"/>
			<polygon class="st0" points="627.2,130.4 627.2,157.5 613.6,157.5 613.6,171.1 586.5,171.1 586.5,184.7 559.4,184.7 559.4,171.1 
				573,171.1 573,157.5 586.5,157.5 586.5,130.4 600.1,130.4 600.1,143.9 613.6,143.9 613.6,130.4 			"/>
		</g>
		<g>
			<polygon class="st2" points="586.5,184.7 586.5,198.2 437.5,198.2 437.5,184.7 464.6,184.7 464.6,171.1 478.1,171.1 478.1,184.7 
				505.2,184.7 505.2,171.1 518.8,171.1 518.8,184.7 545.9,184.7 545.9,171.1 559.4,171.1 559.4,184.7 			"/>
			<rect x="423.9" y="171.1" class="st2" width="13.5" height="13.6"/>
			<rect x="586.5" y="171.1" class="st2" width="13.5" height="13.6"/>
		</g>
		<g>
			<rect x="478.1" y="35.3" class="st3" width="13.5" height="13.6"/>
			<rect x="451" y="21.8" class="st3" width="13.5" height="13.6"/>
			<rect x="532.3" y="35.3" class="st3" width="13.5" height="13.6"/>
			<rect x="505.2" y="21.8" class="st3" width="13.6" height="13.6"/>
			<rect x="559.4" y="21.8" class="st3" width="13.5" height="13.6"/>
			<polygon class="st3" points="627.2,103.2 627.2,130.4 613.6,130.4 613.6,116.8 600.1,116.8 600.1,103.2 586.5,103.2 586.5,143.9 
				573,143.9 573,116.8 545.9,116.8 545.9,130.4 532.3,130.4 532.3,116.8 518.8,116.8 518.8,103.2 505.2,103.2 505.2,116.8 
				491.7,116.8 491.7,130.4 478.1,130.4 478.1,116.8 451,116.8 451,143.9 437.5,143.9 437.5,103.2 423.9,103.2 423.9,116.8 
				410.4,116.8 410.4,130.4 396.8,130.4 396.8,103.2 410.4,103.2 410.4,76.1 423.9,76.1 423.9,48.9 437.5,48.9 437.5,89.6 451,89.6 
				451,76.1 464.6,76.1 464.6,62.5 478.1,62.5 478.1,89.6 464.6,89.6 464.6,103.2 491.7,103.2 491.7,89.6 505.2,89.6 505.2,48.9 
				518.8,48.9 518.8,89.6 532.3,89.6 532.3,103.2 559.4,103.2 559.4,89.6 545.9,89.6 545.9,62.5 559.4,62.5 559.4,76.1 573,76.1 
				573,89.6 586.5,89.6 586.5,48.9 600.1,48.9 600.1,76.1 613.6,76.1 613.6,103.2 			"/>
		</g>
	</g>
</g>
<g id="cere__x28_ф_x29_">
	<g>
		<polygon class="st0" points="349.4,417 363,417 363,457.7 335.8,457.7 335.8,444.1 295.2,444.1 295.2,471.3 281.7,471.3 
			281.7,552.7 295.2,552.7 295.2,579.9 335.8,579.9 335.8,566.3 349.4,566.3 349.4,552.7 363,552.7 363,593.4 349.4,593.4 
			349.4,607 281.7,607 281.7,593.4 268.1,593.4 268.1,566.3 254.5,566.3 254.5,457.7 268.1,457.7 268.1,430.6 281.7,430.6 
			281.7,417 335.8,417 335.8,430.6 349.4,430.6 		"/>
		<polygon class="st0" points="484.9,430.6 498.5,430.6 498.5,471.3 484.9,471.3 484.9,457.7 471.3,457.7 471.3,444.1 430.7,444.1 
			430.7,498.4 471.3,498.4 471.3,512 457.8,512 457.8,525.6 430.7,525.6 430.7,579.9 471.3,579.9 471.3,566.3 484.9,566.3 
			484.9,552.7 498.5,552.7 498.5,593.4 484.9,593.4 484.9,607 390,607 390,593.4 403.6,593.4 403.6,430.6 390,430.6 390,417 
			484.9,417 		"/>
		<path class="st0" d="M620.4,430.6V417h-94.9v13.6h13.5v162.9h-13.5V607h40.7v-95h13.5v27.1h13.5V607H634v-13.6h-13.5v-67.9h-13.6
			v-27.2h13.6v-13.6H634v-54.3H620.4z M593.3,471.3v13.6h-27.1v-40.7h40.6v27.1H593.3z"/>
		<polygon class="st0" points="769.5,430.6 769.5,471.3 755.9,471.3 755.9,457.7 742.3,457.7 742.3,444.1 701.7,444.1 701.7,498.4 
			742.3,498.4 742.3,512 728.8,512 728.8,525.6 701.7,525.6 701.7,579.9 742.3,579.9 742.3,566.3 755.9,566.3 755.9,552.7 
			769.5,552.7 769.5,593.4 755.9,593.4 755.9,607 661,607 661,593.4 674.6,593.4 674.6,430.6 661,430.6 661,417 755.9,417 
			755.9,430.6 		"/>
	</g>
</g>
<g id="CERE">
	<g>
		<rect x="755.9" y="430.6" class="st2" width="13.5" height="13.6"/>
		<polygon class="st2" points="769.5,579.9 769.5,593.4 755.9,593.4 755.9,607 661,607 661,593.4 674.6,593.4 674.6,579.9 
			688.2,579.9 688.2,593.4 701.7,593.4 701.7,579.9 715.3,579.9 715.3,593.4 742.3,593.4 742.3,579.9 		"/>
		<rect x="742.3" y="444.1" class="st2" width="13.6" height="13.6"/>
		<polygon class="st2" points="755.9,417 755.9,430.6 728.8,430.6 728.8,444.1 715.3,444.1 715.3,430.6 701.7,430.6 701.7,444.1 
			688.2,444.1 688.2,430.6 661,430.6 661,417 		"/>
		<rect x="620.4" y="430.6" class="st2" width="13.5" height="13.6"/>
		<polygon class="st2" points="634,593.4 634,607 593.3,607 593.3,579.9 606.8,579.9 606.8,593.4 		"/>
		<polygon class="st2" points="620.4,417 620.4,430.6 606.8,430.6 606.8,444.1 593.3,444.1 593.3,430.6 566.2,430.6 566.2,444.1 
			552.7,444.1 552.7,430.6 525.5,430.6 525.5,417 		"/>
		<polygon class="st2" points="566.2,579.9 566.2,607 525.5,607 525.5,593.4 552.7,593.4 552.7,579.9 		"/>
		<rect x="484.9" y="579.9" class="st2" width="13.5" height="13.6"/>
		<rect x="484.9" y="430.6" class="st2" width="13.5" height="13.6"/>
		<polygon class="st2" points="484.9,417 484.9,430.6 471.3,430.6 471.3,444.1 457.8,444.1 457.8,430.6 430.7,430.6 430.7,444.1 
			417.2,444.1 417.2,430.6 390,430.6 390,417 		"/>
		<polygon class="st2" points="484.9,593.4 484.9,607 390,607 390,593.4 417.2,593.4 417.2,579.9 430.7,579.9 430.7,593.4 
			444.3,593.4 444.3,579.9 457.8,579.9 457.8,593.4 		"/>
		<rect x="349.4" y="579.9" class="st2" width="13.5" height="13.6"/>
		<rect x="349.4" y="417" class="st2" width="13.5" height="13.6"/>
		<rect x="335.8" y="430.6" class="st2" width="13.6" height="13.6"/>
		<polygon class="st2" points="349.4,593.4 349.4,607 281.7,607 281.7,593.4 295.2,593.4 295.2,579.9 308.8,579.9 308.8,593.4 
			322.3,593.4 322.3,579.9 335.8,579.9 335.8,593.4 		"/>
		<polygon class="st2" points="335.8,417 335.8,430.6 308.8,430.6 308.8,444.1 295.2,444.1 295.2,430.6 281.7,430.6 281.7,417 		"/>
		<rect x="268.1" y="579.9" class="st2" width="13.6" height="13.6"/>
		<rect x="268.1" y="430.6" class="st2" width="13.6" height="13.6"/>
		<polygon class="st3" points="742.3,498.4 742.3,512 728.8,512 728.8,525.6 701.7,525.6 701.7,552.7 688.2,552.7 688.2,525.6 
			674.6,525.6 674.6,484.9 688.2,484.9 688.2,498.4 		"/>
		<rect x="688.2" y="457.7" class="st3" width="13.5" height="13.6"/>
		<rect x="674.6" y="552.7" class="st3" width="13.6" height="13.6"/>
		<rect x="620.4" y="471.3" class="st3" width="13.5" height="13.6"/>
		<rect x="606.8" y="552.7" class="st3" width="13.6" height="13.6"/>
		<rect x="606.8" y="457.7" class="st3" width="13.6" height="13.6"/>
		<polygon class="st3" points="620.4,484.9 620.4,498.4 606.8,498.4 606.8,539.1 593.3,539.1 593.3,525.6 579.8,525.6 579.8,512 
			566.2,512 566.2,525.6 552.7,525.6 552.7,539.1 539.1,539.1 539.1,498.4 552.7,498.4 552.7,484.9 566.2,484.9 566.2,498.4 
			579.8,498.4 579.8,484.9 593.3,484.9 593.3,471.3 606.8,471.3 606.8,484.9 		"/>
		<rect x="552.7" y="552.7" class="st3" width="13.5" height="13.6"/>
		<rect x="539.1" y="471.3" class="st3" width="13.6" height="13.6"/>
		<polygon class="st3" points="471.3,498.4 471.3,512 457.8,512 457.8,525.6 430.7,525.6 430.7,552.7 417.2,552.7 417.2,525.6 
			403.6,525.6 403.6,484.9 417.2,484.9 417.2,498.4 		"/>
		<rect x="417.2" y="471.3" class="st3" width="13.5" height="13.6"/>
		<rect x="403.6" y="552.7" class="st3" width="13.6" height="13.6"/>
		<rect x="403.6" y="457.7" class="st3" width="13.6" height="13.6"/>
		<rect x="268.1" y="539.1" class="st3" width="13.6" height="27.2"/>
		<polygon class="st3" points="281.7,484.9 281.7,525.6 268.1,525.6 268.1,539.1 254.5,539.1 254.5,498.4 268.1,498.4 268.1,484.9 
					"/>
		<rect x="254.5" y="471.3" class="st3" width="13.5" height="13.6"/>
		<polygon class="st0" points="769.5,552.7 769.5,579.9 742.3,579.9 742.3,566.3 755.9,566.3 755.9,552.7 		"/>
		<rect x="755.9" y="444.1" class="st0" width="13.5" height="27.1"/>
		<rect x="728.8" y="430.6" class="st0" width="27.1" height="13.6"/>
		<rect x="715.3" y="579.9" class="st0" width="27.1" height="13.6"/>
		<rect x="701.7" y="430.6" class="st0" width="13.5" height="13.6"/>
		<polygon class="st0" points="701.7,552.7 701.7,593.4 688.2,593.4 688.2,579.9 674.6,579.9 674.6,566.3 688.2,566.3 688.2,552.7 
					"/>
		<rect x="674.6" y="525.6" class="st0" width="13.6" height="27.1"/>
		<polygon class="st0" points="688.2,457.7 688.2,471.3 701.7,471.3 701.7,498.4 688.2,498.4 688.2,484.9 674.6,484.9 674.6,430.6 
			688.2,430.6 688.2,444.1 701.7,444.1 701.7,457.7 		"/>
		<polygon class="st0" points="620.4,525.6 620.4,552.7 606.8,552.7 606.8,566.3 620.4,566.3 620.4,593.4 606.8,593.4 606.8,579.9 
			593.3,579.9 593.3,539.1 606.8,539.1 606.8,525.6 		"/>
		<rect x="606.9" y="471.3" class="st0" width="13.5" height="13.6"/>
		<polygon class="st0" points="634,444.1 634,471.3 620.4,471.3 620.4,457.7 606.8,457.7 606.8,430.6 620.4,430.6 620.4,444.1 		"/>
		<rect x="579.8" y="525.6" class="st0" width="13.5" height="13.6"/>
		<rect x="566.2" y="430.6" class="st0" width="27.1" height="13.6"/>
		<rect x="566.2" y="484.9" class="st0" width="13.5" height="13.6"/>
		<polygon class="st0" points="566.2,525.6 566.2,552.7 552.7,552.7 552.7,566.3 566.2,566.3 566.2,579.9 552.7,579.9 552.7,593.4 
			539.1,593.4 539.1,539.1 552.7,539.1 552.7,525.6 		"/>
		<polygon class="st0" points="566.2,444.1 566.2,484.9 552.7,484.9 552.7,471.3 539.1,471.3 539.1,430.6 552.7,430.6 552.7,444.1 
					"/>
		<rect x="539.1" y="484.9" class="st0" width="13.6" height="13.6"/>
		<polygon class="st0" points="498.5,552.7 498.5,579.9 484.9,579.9 484.9,593.4 457.8,593.4 457.8,579.9 471.3,579.9 471.3,566.3 
			484.9,566.3 484.9,552.7 		"/>
		<polygon class="st0" points="498.5,444.1 498.5,471.3 484.9,471.3 484.9,457.7 471.3,457.7 471.3,430.6 484.9,430.6 484.9,444.1 
					"/>
		<rect x="430.7" y="430.6" class="st0" width="27.1" height="13.6"/>
		<rect x="430.7" y="579.9" class="st0" width="13.5" height="13.6"/>
		<polygon class="st0" points="430.7,552.7 430.7,579.9 417.2,579.9 417.2,593.4 403.6,593.4 403.6,566.3 417.2,566.3 417.2,552.7 
					"/>
		<rect x="417.2" y="484.9" class="st0" width="13.5" height="13.6"/>
		<rect x="403.6" y="525.6" class="st0" width="13.6" height="27.1"/>
		<rect x="403.6" y="471.3" class="st0" width="13.6" height="13.6"/>
		<polygon class="st0" points="430.7,444.1 430.7,471.3 417.2,471.3 417.2,457.7 403.6,457.7 403.6,430.6 417.2,430.6 417.2,444.1 
					"/>
		<polygon class="st0" points="363,552.7 363,579.9 349.4,579.9 349.4,593.4 335.8,593.4 335.8,566.3 349.4,566.3 349.4,552.7 		"/>
		<polygon class="st0" points="363,430.6 363,457.7 335.8,457.7 335.8,444.1 349.4,444.1 349.4,430.6 		"/>
		<rect x="308.8" y="430.6" class="st0" width="27.1" height="13.6"/>
		<rect x="308.8" y="579.9" class="st0" width="13.5" height="13.6"/>
		<polygon class="st0" points="295.2,552.7 295.2,593.4 281.7,593.4 281.7,579.9 268.1,579.9 268.1,566.3 281.7,566.3 281.7,552.7 
					"/>
		<polygon class="st0" points="295.2,430.6 295.2,471.3 281.7,471.3 281.7,484.9 268.1,484.9 268.1,471.3 254.5,471.3 254.5,457.7 
			268.1,457.7 268.1,444.1 281.7,444.1 281.7,430.6 		"/>
		<rect x="268.1" y="525.6" class="st0" width="13.6" height="13.6"/>
		<rect x="254.5" y="539.1" class="st0" width="13.5" height="27.2"/>
		<rect x="254.5" y="484.9" class="st0" width="13.5" height="13.6"/>
	</g>
</g>
</svg>
