<?xml version="1.0" encoding="utf-8"?>
<!-- Generator: Adobe Illustrator 24.0.1, SVG Export Plug-In . SVG Version: 6.00 Build 0)  -->
<svg version="1.1" id="Слой_1" xmlns="http://www.w3.org/2000/svg" xmlns:xlink="http://www.w3.org/1999/xlink" x="0px" y="0px"
	 viewBox="0 0 1024 1024" style="enable-background:new 0 0 1024 1024;" xml:space="preserve">
<style type="text/css">
	.st0{fill:#EFE02B;}
	.st1{fill:#F2C029;}
	.st2{fill:#FFEC3E;}
</style>
<g id="Корона__x28_ф_x29_">
	<path class="st0" d="M923.6,484.5v-110h-54.8V264.6h-54.9v164.9H759v-55h-55v-55h-54.8v110H704v55H594.3v-55h-54.9V264.6h-54.9
		v164.9h-54.9v55H320v-55h54.8v-110H320v55h-54.9v55h-54.9V264.6h-54.9v109.9h-54.8v110H45.6v219.9h54.9v55h54.8v55h54.9v55h603.7
		v-55h54.9v-55h54.8v-55h54.9V484.5H923.6z M429.7,539.5h54.9v-55h54.9v55h54.9v110h-54.9v55h-54.9v-55h-54.9V539.5z M100.4,649.5
		v-110h54.8v-55h54.9v109.9h-54.9v55L100.4,649.5L100.4,649.5z M265.1,759.4v-55h-54.9v-55h54.9v-110H320v110h54.8v55h54.9v55H265.1
		z M758.9,704.4v55H594.3v-55h54.9v-55H704v-110h54.9v110h54.9v55H758.9z M923.6,649.5h-54.8v-55h-54.9v-110h54.9v55h54.8V649.5z"/>
</g>
<g id="Корона">
	<g>
		<g>
			<polygon class="st0" points="320,759.4 320,814.4 210.2,814.4 210.2,759.4 100.4,759.4 100.4,704.4 45.6,704.4 45.6,594.5 
				100.4,594.5 100.4,649.5 155.3,649.5 155.3,594.5 210.2,594.5 210.2,704.4 265.1,704.4 265.1,759.4 			"/>
			<polygon class="st0" points="704,539.5 704,649.5 649.2,649.5 649.2,704.4 594.3,704.4 594.3,759.4 649.2,759.4 649.2,814.4 
				539.5,814.4 539.5,759.4 484.5,759.4 484.5,814.4 374.8,814.4 374.8,759.4 429.7,759.4 429.7,704.4 374.8,704.4 374.8,649.5 
				320,649.5 320,539.5 374.8,539.5 374.8,594.5 429.7,594.5 429.7,649.5 484.5,649.5 484.5,704.4 539.5,704.4 539.5,649.5 
				594.3,649.5 594.3,594.5 649.2,594.5 649.2,539.5 			"/>
			<polygon class="st0" points="978.4,594.5 978.4,704.4 923.6,704.4 923.6,759.4 813.8,759.4 813.8,814.4 704,814.4 704,759.4 
				758.9,759.4 758.9,704.4 813.8,704.4 813.8,594.5 868.7,594.5 868.7,649.5 923.6,649.5 923.6,594.5 			"/>
		</g>
		<g>
			<polygon class="st1" points="813.8,814.4 813.8,869.3 210.2,869.3 210.2,814.4 320,814.4 320,759.4 374.8,759.4 374.8,814.4 
				484.5,814.4 484.5,759.4 539.5,759.4 539.5,814.4 649.2,814.4 649.2,759.4 704,759.4 704,814.4 			"/>
			<rect x="155.3" y="759.4" class="st1" width="54.9" height="55"/>
			<rect x="813.8" y="759.4" class="st1" width="54.9" height="55"/>
		</g>
		<g>
			<rect x="374.8" y="209.7" class="st2" width="54.9" height="55"/>
			<rect x="265.1" y="154.7" class="st2" width="54.9" height="55"/>
			<rect x="594.3" y="209.7" class="st2" width="54.9" height="55"/>
			<rect x="484.5" y="154.7" class="st2" width="54.9" height="55"/>
			<rect x="704" y="154.7" class="st2" width="54.9" height="55"/>
			<polygon class="st2" points="978.4,484.5 978.4,594.5 923.6,594.5 923.6,539.5 868.7,539.5 868.7,484.5 813.8,484.5 813.8,649.5 
				758.9,649.5 758.9,539.5 649.2,539.5 649.2,594.5 594.3,594.5 594.3,539.5 539.5,539.5 539.5,484.5 484.5,484.5 484.5,539.5 
				429.7,539.5 429.7,594.5 374.8,594.5 374.8,539.5 265.1,539.5 265.1,649.5 210.2,649.5 210.2,484.5 155.3,484.5 155.3,539.5 
				100.4,539.5 100.4,594.5 45.6,594.5 45.6,484.5 100.4,484.5 100.4,374.6 155.3,374.6 155.3,264.6 210.2,264.6 210.2,429.5 
				265.1,429.5 265.1,374.6 320,374.6 320,319.6 374.8,319.6 374.8,429.5 320,429.5 320,484.5 429.7,484.5 429.7,429.5 484.5,429.5 
				484.5,264.6 539.5,264.6 539.5,429.5 594.3,429.5 594.3,484.5 704,484.5 704,429.5 649.2,429.5 649.2,319.6 704,319.6 704,374.6 
				758.9,374.6 758.9,429.5 813.8,429.5 813.8,264.6 868.7,264.6 868.7,374.6 923.6,374.6 923.6,484.5 			"/>
		</g>
	</g>
</g>
</svg>
